<svg
	id="Capa_1"
	enable-background="new 0 0 512 512"
	height="512"
	viewBox="0 0 512 512"
	width="512"
	xmlns="http://www.w3.org/2000/svg"
	xmlns:xlink="http://www.w3.org/1999/xlink"
>
	<linearGradient id="SVGID_1_" gradientUnits="userSpaceOnUse" x1="256" x2="256" y1="512" y2="0">
		<stop offset="0" stop-color="#fd3a84" />
		<stop offset="1" stop-color="#ffa68d" />
	</linearGradient>
	<linearGradient id="SVGID_2_" gradientUnits="userSpaceOnUse" x1="256" x2="256" y1="512" y2="62">
		<stop offset="0" stop-color="#ffc2cc" />
		<stop offset="1" stop-color="#fff2f4" />
	</linearGradient>
	<g>
		<g>
			<g>
				<path
					d="m481 0h-330c-8.401 0-15 6.599-15 15v482c0 8.399 6.599 15 15 15h210l60-105 75-30v-362c0-8.401-6.599-15-15-15zm-405 64.763v-17.763c0-8.291-6.709-15-15-15s-15 6.709-15 15v17.763c-17.422 6.213-30 22.707-30 42.237v195c0 16.568 13.431 30 30 30h30c16.569 0 30-13.432 30-30v-195c0-19.53-12.578-36.024-30-42.237z"
					fill="url(#SVGID_1_)"
				/>
			</g>
		</g>
		<g>
			<g>
				<path
					d="m301 122h120c8.291 0 15-6.709 15-15s-6.709-15-15-15h-120c-8.291 0-15 6.709-15 15s6.709 15 15 15zm0 90h120c8.291 0 15-6.709 15-15s-6.709-15-15-15h-120c-8.291 0-15 6.709-15 15s6.709 15 15 15zm-85.605 85.605c2.93 2.93 6.768 4.395 10.605 4.395s7.676-1.465 10.605-4.395l30-30c5.859-5.859 5.859-15.352 0-21.211s-15.352-5.859-21.211 0l-19.394 19.395-4.395-4.395c-5.859-5.859-15.352-5.859-21.211 0s-5.859 15.352 0 21.211zm0-90c2.93 2.93 6.768 4.395 10.605 4.395s7.676-1.465 10.605-4.395l30-30c5.859-5.859 5.859-15.352 0-21.211s-15.352-5.859-21.211 0l-19.394 19.395-4.395-4.395c-5.859-5.859-15.352-5.859-21.211 0s-5.859 15.352 0 21.211zm0-90c2.93 2.93 6.768 4.395 10.605 4.395s7.676-1.465 10.605-4.395l30-30c5.859-5.859 5.859-15.352 0-21.211s-15.352-5.859-21.211 0l-19.394 19.395-4.395-4.395c-5.859-5.859-15.352-5.859-21.211 0s-5.859 15.352 0 21.211zm85.605 184.395h120c8.291 0 15-6.709 15-15s-6.709-15-15-15h-120c-8.291 0-15 6.709-15 15s6.709 15 15 15zm0 60h-90c-8.291 0-15 6.709-15 15s6.709 15 15 15h90c8.291 0 15-6.709 15-15s-6.709-15-15-15zm102.033 15c-7.03 0-13.118 4.883-14.643 11.746l-27.39 123.254c3.9 0 7.8-1.5 10.499-4.5l120-120c3.001-2.7 4.501-6.6 4.501-10.5zm-387.033 17.695c0 30.82 12.539 61.04 34.395 82.91 2.812 2.813 6.621 4.395 10.605 4.395s7.793-1.582 10.605-4.395c21.855-21.87 34.395-52.09 34.395-82.91v-92.695h-90z"
					fill="url(#SVGID_2_)"
				/>
			</g>
		</g>
	</g>
</svg>
